<svg id="Component_32_1" data-name="Component 32 – 1" xmlns="http://www.w3.org/2000/svg" xmlns:xlink="http://www.w3.org/1999/xlink" width="20" height="20.004" viewBox="0 0 20 20.004">
  <defs>
    <clipPath id="clip-path">
      <path id="Path_1130" data-name="Path 1130" d="M21-4.006,15.874-5.286A10,10,0,0,1,3.02-7.979a10,10,0,0,1,.9-13.1,10,10,0,0,1,13.1-.9,10,10,0,0,1,2.69,12.855ZM16.831-19.867A8.273,8.273,0,0,0,5.4-20.142a8.273,8.273,0,0,0-.8,11.4A8.273,8.273,0,0,0,15.961-7.423l2.426.809-.809-2.427a8.265,8.265,0,0,0-.748-10.826ZM15.344-12.7a1.3,1.3,0,0,1-1.3-1.3,1.3,1.3,0,0,1,1.3-1.3,1.3,1.3,0,0,1,1.3,1.3,1.3,1.3,0,0,1-1.3,1.3ZM11-12.7a1.3,1.3,0,0,1-1.3-1.3,1.3,1.3,0,0,1,1.3-1.3A1.3,1.3,0,0,1,12.3-14,1.3,1.3,0,0,1,11-12.7Zm-4.347,0a1.3,1.3,0,0,1-1.3-1.3,1.3,1.3,0,0,1,1.3-1.3,1.3,1.3,0,0,1,1.3,1.3,1.3,1.3,0,0,1-1.3,1.3Z" transform="translate(-0.995 24.009)" fill="#707070" clip-rule="evenodd"/>
    </clipPath>
    <clipPath id="clip-path-2">
      <path id="Path_1129" data-name="Path 1129" d="M-675,358.627H20.5V-163H-675Z" transform="translate(675 163)" fill="#707070"/>
    </clipPath>
  </defs>
  <g id="Group_771" data-name="Group 771" clip-path="url(#clip-path)">
    <g id="Group_770" data-name="Group 770" transform="translate(-587.695 -120.835)" clip-path="url(#clip-path-2)">
      <path id="Path_1128" data-name="Path 1128" d="M-4-29.009H24.689v28.7H-4Z" transform="translate(587.353 145.498)" fill="#707070"/>
    </g>
  </g>
</svg>
