<svg id="Design_Icon" data-name="Design Icon" xmlns="http://www.w3.org/2000/svg" width="40" height="40" viewBox="0 0 40 40">
  <path id="Path_1030" data-name="Path 1030" d="M20,0A20,20,0,1,1,0,20,20,20,0,0,1,20,0Z" fill="#632e96"/>
  <g id="canvas_graphics" transform="translate(8 8)">
    <rect id="Bounding_box" data-name="Bounding box" width="24" height="24" fill="rgba(255,255,255,0)"/>
    <path id="Icon_color" data-name="Icon color" d="M16.75,20H15.57a1,1,0,0,1-.82-.43L12.25,16H7.75L5.25,19.57a1,1,0,0,1-.82.43H3.25A.25.25,0,0,1,3,19.75v-.22a.765.765,0,0,1,.14-.43L5.31,16H.5a.5.5,0,0,1-.5-.5v-1A.5.5,0,0,1,.5,14H1V4A2,2,0,0,1,3,2H9V.5A.5.5,0,0,1,9.5,0h1a.5.5,0,0,1,.5.5V2h6a2,2,0,0,1,2,2V14h.5a.5.5,0,0,1,.5.5v1a.5.5,0,0,1-.5.5H14.69l2.17,3.1a.76.76,0,0,1,.14.43v.22A.25.25,0,0,1,16.75,20ZM3,4v9.36a.642.642,0,0,0,.642.653.439.439,0,0,0,.049,0,.755.755,0,0,0,.6-.3l2.229-3a.51.51,0,0,1,.81,0l1,1.36a.5.5,0,0,0,.394.194.493.493,0,0,0,.4-.194L11.41,9.19A.506.506,0,0,1,11.8,9a.5.5,0,0,1,.39.187l3.67,4.57a.672.672,0,0,0,.5.24A.641.641,0,0,0,17,13.36V4ZM7.5,9A1.5,1.5,0,1,1,9,7.5,1.5,1.5,0,0,1,7.5,9Z" transform="translate(2 2)" fill="#fff"/>
  </g>
</svg>
