<svg id="Hamburger" xmlns="http://www.w3.org/2000/svg" width="40" height="40" viewBox="0 0 40 40">
  <g id="Group_826" data-name="Group 826">
    <g id="Path_1118" data-name="Path 1118" fill="#f1f1f1" opacity="0.5">
      <path d="M6,0H34a6,6,0,0,1,6,6V34a6,6,0,0,1-6,6H6a6,6,0,0,1-6-6V6A6,6,0,0,1,6,0Z" stroke="none"/>
      <path d="M 6 1 C 3.242988586425781 1 1 3.242988586425781 1 6 L 1 34 C 1 36.75701141357422 3.242988586425781 39 6 39 L 34 39 C 36.75701141357422 39 39 36.75701141357422 39 34 L 39 6 C 39 3.242988586425781 36.75701141357422 1 34 1 L 6 1 M 6 0 L 34 0 C 37.3137092590332 0 40 2.686290740966797 40 6 L 40 34 C 40 37.3137092590332 37.3137092590332 40 34 40 L 6 40 C 2.686290740966797 40 0 37.3137092590332 0 34 L 0 6 C 0 2.686290740966797 2.686290740966797 0 6 0 Z" stroke="none" fill="rgba(199,197,199,0.16)"/>
    </g>
  </g>
  <g id="Group_759" data-name="Group 759" transform="translate(-16 -41)">
    <rect id="Rectangle_1575" data-name="Rectangle 1575" width="24" height="2" transform="translate(24 55)" fill="#707070"/>
    <rect id="Rectangle_1576" data-name="Rectangle 1576" width="24" height="2" transform="translate(24 60)" fill="#707070"/>
    <rect id="Rectangle_1577" data-name="Rectangle 1577" width="17" height="2" transform="translate(24 65)" fill="#707070"/>
  </g>
</svg>
