<svg id="Handoff_Icon" data-name="Handoff Icon" xmlns="http://www.w3.org/2000/svg" width="40" height="40" viewBox="0 0 40 40">
  <circle id="Ellipse_3" data-name="Ellipse 3" cx="20" cy="20" r="20" fill="#632e96"/>
  <g id="shopping" transform="translate(8 8)">
    <rect id="Bounding_box" data-name="Bounding box" width="24" height="24" fill="rgba(255,255,255,0)"/>
    <path id="Icon_color" data-name="Icon color" d="M16,20H2a2,2,0,0,1-2-2V6A1,1,0,0,1,1,5H4A5,5,0,1,1,14,5h3a1,1,0,0,1,1,1V18A2,2,0,0,1,16,20ZM12.5,7a.5.5,0,0,0-.5.5v1a.5.5,0,0,0,.5.5h1a.5.5,0,0,0,.5-.5v-1a.5.5,0,0,0-.5-.5Zm-8,0a.5.5,0,0,0-.5.5v1a.5.5,0,0,0,.5.5h1A.5.5,0,0,0,6,8.5v-1A.5.5,0,0,0,5.5,7ZM9,2A3,3,0,0,0,6,5h6A3,3,0,0,0,9,2Z" transform="translate(3 2)" fill="#fff"/>
  </g>
</svg>
