<svg id="Component_31_1" data-name="Component 31 – 1" xmlns="http://www.w3.org/2000/svg" xmlns:xlink="http://www.w3.org/1999/xlink" width="20" height="19.997" viewBox="0 0 20 19.997">
  <defs>
    <clipPath id="clip-path">
      <path id="Path_1127" data-name="Path 1127" d="M20-14a.815.815,0,0,1-.242.591.7.7,0,0,1-.158.11,1.828,1.828,0,0,1-1.267.962H17.5v6.667A1.667,1.667,0,0,1,15.833-4H4.167A1.667,1.667,0,0,1,2.5-5.666v-6.667H1.667A1.667,1.667,0,0,1,.008-13.951c0-.012-.008-.025-.008-.038V-14H0a.808.808,0,0,1,.242-.555l9.083-9.088a.442.442,0,0,1,.083-.119.864.864,0,0,1,1.183,0,.446.446,0,0,1,.083.12l9.083,9.087A.808.808,0,0,1,20-14h0ZM9.167-5.662h1.667V-9.829H9.167v4.167ZM10-22.011,1.983-14H4.167v8.333H7.5v-5a.833.833,0,0,1,.833-.833h3.333a.833.833,0,0,1,.833.833v5h3.333V-14h2.183Z" transform="translate(0 23.996)" fill="#707070" clip-rule="evenodd"/>
    </clipPath>
    <clipPath id="clip-path-2">
      <path id="Path_1126" data-name="Path 1126" d="M-244,50H422.664V-450H-244Z" transform="translate(244 450)" fill="#707070"/>
    </clipPath>
  </defs>
  <g id="Group_768" data-name="Group 768" clip-path="url(#clip-path)">
    <g id="Group_767" data-name="Group 767" transform="translate(-203.333 -355.002)" clip-path="url(#clip-path-2)">
      <path id="Path_1125" data-name="Path 1125" d="M-5-29H23.333V-.666H-5Z" transform="translate(204.166 379.831)" fill="#707070"/>
    </g>
  </g>
</svg>
