<svg xmlns="http://www.w3.org/2000/svg" width="34" height="34" viewBox="0 0 34 34">
  <g id="instagram" transform="translate(0.759 1)">
    <rect id="Rectangle" width="32" height="32" transform="translate(0.241)" fill="none"/>
    <circle id="Oval" cx="16" cy="16" r="16" transform="translate(0.241)" fill="none" stroke="#fff" stroke-width="2"/>
    <path id="Shape" d="M22,12.982c2.937,0,3.285.011,4.445.064a6.089,6.089,0,0,1,2.043.379,3.643,3.643,0,0,1,2.088,2.088,6.087,6.087,0,0,1,.379,2.043c.053,1.16.064,1.508.064,4.445s-.011,3.285-.064,4.445a6.087,6.087,0,0,1-.379,2.043,3.642,3.642,0,0,1-2.088,2.088,6.087,6.087,0,0,1-2.043.379c-1.16.053-1.508.064-4.445.064s-3.285-.011-4.445-.064a6.086,6.086,0,0,1-2.043-.379,3.642,3.642,0,0,1-2.088-2.088,6.087,6.087,0,0,1-.379-2.043c-.053-1.16-.064-1.508-.064-4.445s.011-3.285.064-4.445a6.087,6.087,0,0,1,.379-2.043,3.643,3.643,0,0,1,2.088-2.088,6.088,6.088,0,0,1,2.042-.379c1.16-.053,1.508-.064,4.445-.064M22,11c-2.987,0-3.362.013-4.535.066a8.074,8.074,0,0,0-2.67.511,5.625,5.625,0,0,0-3.217,3.217,8.074,8.074,0,0,0-.511,2.67C11.013,18.638,11,19.013,11,22s.013,3.362.066,4.535a8.074,8.074,0,0,0,.511,2.67,5.625,5.625,0,0,0,3.217,3.217,8.074,8.074,0,0,0,2.67.511C18.638,32.987,19.013,33,22,33s3.362-.013,4.535-.066a8.074,8.074,0,0,0,2.67-.511,5.625,5.625,0,0,0,3.217-3.217,8.074,8.074,0,0,0,.511-2.67C32.987,25.362,33,24.987,33,22s-.013-3.362-.066-4.535a8.074,8.074,0,0,0-.511-2.67,5.625,5.625,0,0,0-3.217-3.217,8.074,8.074,0,0,0-2.67-.511C25.362,11.013,24.987,11,22,11Zm.022,5.369a5.653,5.653,0,1,0,5.653,5.653A5.653,5.653,0,0,0,22.022,16.369Zm0,9.322a3.669,3.669,0,1,1,3.669-3.669A3.669,3.669,0,0,1,22.022,25.691Zm7.137-9.584a1.31,1.31,0,1,1-1.31-1.31A1.31,1.31,0,0,1,29.159,16.107Z" transform="translate(-6 -6)" fill="#fff" fill-rule="evenodd"/>
  </g>
</svg>
