<svg xmlns="http://www.w3.org/2000/svg" xmlns:xlink="http://www.w3.org/1999/xlink" width="351" height="643" viewBox="0 0 351 643">
  <defs>
    <clipPath id="clip-path">
      <rect id="Rectangle_148223" data-name="Rectangle 148223" width="351" height="643" transform="translate(48 183)" fill="rgba(237,20,20,0.5)"/>
    </clipPath>
    <clipPath id="clip-path-2">
      <rect id="Rectangle_148161" data-name="Rectangle 148161" width="84" height="24" transform="translate(-11)" fill="none"/>
    </clipPath>
  </defs>
  <g id="Mask_Group_68041" data-name="Mask Group 68041" transform="translate(-48 -183)" clip-path="url(#clip-path)">
    <g id="Group_73380" data-name="Group 73380">
      <g id="Group_73353" data-name="Group 73353" transform="translate(1)">
        <g id="Group_72751" data-name="Group 72751">
          <g id="Plugin_Panel" data-name="Plugin Panel" transform="translate(-67.998 -1499)">
            <g id="Group_66985" data-name="Group 66985" transform="translate(115.999 1549)">
              <rect id="Rectangle_147798" data-name="Rectangle 147798" width="349.999" height="1030" transform="translate(0.001)" fill="#f5f5f5"/>
              <path id="Path_36110" data-name="Path 36110" d="M0,1146.679Z" transform="translate(74.903 -1071.406)" fill="#d5d5d5"/>
              <text id="PLUGINS" transform="translate(33.449 25.98)" fill="#8e8e8e" font-size="11" font-family="Helvetica"><tspan x="0" y="0">PLUGINS</tspan></text>
              <path id="Path_36112" data-name="Path 36112" d="M0,0,4.843,4.843,0,9.686" transform="translate(19.344 26.554) rotate(180)" fill="none" stroke="#666" stroke-linecap="round" stroke-width="2"/>
              <circle id="Ellipse_20219" data-name="Ellipse 20219" cx="1.543" cy="1.543" r="1.543" transform="translate(316.374 62.92)" fill="#8e8e8e"/>
              <circle id="Ellipse_20220" data-name="Ellipse 20220" cx="1.543" cy="1.543" r="1.543" transform="translate(321.001 62.92)" fill="#8e8e8e"/>
              <circle id="Ellipse_20221" data-name="Ellipse 20221" cx="1.543" cy="1.543" r="1.543" transform="translate(325.63 62.92)" fill="#8e8e8e"/>
              <text id="CopyThat" transform="translate(14.001 68.091)" fill="#707070" font-size="11" font-family="Helvetica"><tspan x="0" y="0">CopyThat</tspan></text>
            </g>
          </g>
          <g id="Group_72754" data-name="Group 72754" transform="translate(0 72)">
            <g id="Artboard_B" data-name="Artboard B" transform="translate(60 590)">
              <g id="Group_67958" data-name="Group 67958">
                <rect id="Canvas" width="18" height="18" fill="#ff13dc" opacity="0"/>
                <path id="Path_36671" data-name="Path 36671" d="M4,4.5v12a.5.5,0,0,0,.5.5h12a.5.5,0,0,0,.5-.5V7.457a.5.5,0,0,0-.146-.353L13.9,4.146A.5.5,0,0,0,13.543,4H4.5A.5.5,0,0,0,4,4.5ZM16,16H5V5h8V7.5a.5.5,0,0,0,.5.5H16Z" fill="#707070"/>
                <rect id="Rectangle_147953" data-name="Rectangle 147953" width="1" height="3" transform="translate(4)" fill="#707070"/>
                <rect id="Rectangle_147954" data-name="Rectangle 147954" width="3" height="1" transform="translate(0 4)" fill="#707070"/>
              </g>
              <text id="Artboard_B-2" data-name="Artboard B" transform="translate(26 16)" fill="#3f3f3f" font-size="10" font-family="Helvetica"><tspan x="0" y="0">Artboard B</tspan></text>
            </g>
            <g id="Artboard_C" data-name="Artboard C" transform="translate(60 620)">
              <g id="Group_67960" data-name="Group 67960">
                <rect id="Canvas-2" data-name="Canvas" width="18" height="18" fill="#ff13dc" opacity="0"/>
                <path id="Path_36671-2" data-name="Path 36671" d="M4,4.5v12a.5.5,0,0,0,.5.5h12a.5.5,0,0,0,.5-.5V7.457a.5.5,0,0,0-.146-.353L13.9,4.146A.5.5,0,0,0,13.543,4H4.5A.5.5,0,0,0,4,4.5ZM16,16H5V5h8V7.5a.5.5,0,0,0,.5.5H16Z" fill="#707070"/>
                <rect id="Rectangle_147953-2" data-name="Rectangle 147953" width="1" height="3" transform="translate(4)" fill="#707070"/>
                <rect id="Rectangle_147954-2" data-name="Rectangle 147954" width="3" height="1" transform="translate(0 4)" fill="#707070"/>
              </g>
              <text id="Artboard_C-2" data-name="Artboard C" transform="translate(26 16)" fill="#3f3f3f" font-size="10" font-family="Helvetica"><tspan x="0" y="0">Artboard C</tspan></text>
            </g>
            <line id="Line_29" data-name="Line 29" x2="324.491" transform="translate(60.002 668)" fill="none" stroke="#e0e0e0" stroke-width="1"/>
            <g id="Group_68152" data-name="Group 68152" transform="translate(301 708)" clip-path="url(#clip-path-2)">
              <path id="Path_36744" data-name="Path 36744" d="M13.442,0h54.89c7.424,0,13.442,5.373,13.442,12S75.756,24,68.332,24H13.442C6.018,24,0,18.627,0,12S6.018,0,13.442,0Z" transform="translate(-9)" fill="#8438d0"/>
              <text id="Publish_Draft" data-name="Publish Draft" transform="translate(-1 16)" fill="#fff" font-size="10" font-family="Helvetica-Bold, Helvetica" font-weight="700"><tspan x="0" y="0">Publish Draft</tspan></text>
            </g>
            <g id="Group_72753" data-name="Group 72753">
              <g id="Group_72752" data-name="Group 72752">
                <g id="Targeted_text_object_layer" data-name="Targeted text object layer" transform="translate(48 217)">
                  <rect id="Rectangle_147955" data-name="Rectangle 147955" width="350.001" height="366" rx="2" transform="translate(0 -1)" fill="#fff"/>
                  <g id="Group_67955" data-name="Group 67955" transform="translate(12 7)">
                    <rect id="Canvas-3" data-name="Canvas" width="18" height="18" fill="#ff13dc" opacity="0"/>
                    <path id="Path_36671-3" data-name="Path 36671" d="M4,4.5v12a.5.5,0,0,0,.5.5h12a.5.5,0,0,0,.5-.5V7.457a.5.5,0,0,0-.146-.353L13.9,4.146A.5.5,0,0,0,13.543,4H4.5A.5.5,0,0,0,4,4.5ZM16,16H5V5h8V7.5a.5.5,0,0,0,.5.5H16Z" fill="#707070"/>
                    <rect id="Rectangle_147953-3" data-name="Rectangle 147953" width="1" height="3" transform="translate(4)" fill="#707070"/>
                    <rect id="Rectangle_147954-3" data-name="Rectangle 147954" width="3" height="1" transform="translate(0 4)" fill="#707070"/>
                  </g>
                  <g id="Group_67957" data-name="Group 67957" transform="translate(38 70)">
                    <rect id="Canvas-4" data-name="Canvas" width="13" height="13" fill="#c4c4c4" opacity="0"/>
                    <path id="Path_36672" data-name="Path 36672" d="M2.321,2A.321.321,0,0,0,2,2.321V4.25a.321.321,0,0,0,.321.321h.643a.321.321,0,0,0,.321-.321V3.286H5.857V9.714H4.893a.321.321,0,0,0-.321.321v.643A.321.321,0,0,0,4.893,11H8.107a.321.321,0,0,0,.321-.321v-.643a.321.321,0,0,0-.321-.321H7.143V3.286H9.714V4.25a.321.321,0,0,0,.321.321h.643A.321.321,0,0,0,11,4.25V2.321A.321.321,0,0,0,10.679,2Z" fill="#c4c4c4"/>
                  </g>
                  <text id="Artboard_A" data-name="Artboard A" transform="translate(38.002 23)" fill="#3f3f3f" font-size="10" font-family="Helvetica"><tspan x="0" y="0">Artboard A</tspan></text>
                  <rect id="Rectangle_147956" data-name="Rectangle 147956" width="350.001" height="24" transform="translate(0 64.141)" fill="#8438d0" opacity="0.099"/>
                  <g id="Group_67956" data-name="Group 67956" transform="translate(38 41)">
                    <rect id="Canvas-5" data-name="Canvas" width="13" height="13" fill="#c4c4c4" opacity="0"/>
                    <path id="Path_36672-2" data-name="Path 36672" d="M2.321,2A.321.321,0,0,0,2,2.321V4.25a.321.321,0,0,0,.321.321h.643a.321.321,0,0,0,.321-.321V3.286H5.857V9.714H4.893a.321.321,0,0,0-.321.321v.643A.321.321,0,0,0,4.893,11H8.107a.321.321,0,0,0,.321-.321v-.643a.321.321,0,0,0-.321-.321H7.143V3.286H9.714V4.25a.321.321,0,0,0,.321.321h.643A.321.321,0,0,0,11,4.25V2.321A.321.321,0,0,0,10.679,2Z" fill="#c4c4c4"/>
                  </g>
                  <text id="Text_object_1" data-name="Text object 1" transform="translate(59.002 51)" fill="#3f3f3f" font-size="10" font-family="Helvetica"><tspan x="0" y="0">Text object 1</tspan></text>
                  <text id="Text_object_2" data-name="Text object 2" transform="translate(59.002 80)" fill="#3f3f3f" font-size="10" font-family="Helvetica"><tspan x="0" y="0">Text object 2</tspan></text>
                </g>
                <g id="Text_editor" data-name="Text editor" transform="translate(0 35)">
                  <g id="Rectangle_148044" data-name="Rectangle 148044" transform="translate(108 318)" fill="#fff" stroke="#8438d0" stroke-width="1">
                    <rect width="264" height="106" rx="3" stroke="none"/>
                    <rect x="0.5" y="0.5" width="263" height="105" rx="2.5" fill="none"/>
                  </g>
                  <g id="Group_68132" data-name="Group 68132" transform="translate(253 400)">
                    <rect id="Canvas-6" data-name="Canvas" width="14" height="14" fill="#707070" opacity="0"/>
                    <rect id="Rectangle_148147" data-name="Rectangle 148147" width="12" height="2" rx="0.5" transform="translate(1 9.75)" fill="#8438d0"/>
                    <path id="Path_36732" data-name="Path 36732" d="M1.185,10H5.2a.369.369,0,0,0,.282-.4A.466.466,0,0,0,5.4,9.32L3.919,7.34l.259-.346A3.591,3.591,0,0,1,8.3,5.517a5.2,5.2,0,0,1,3.028,4.014.508.508,0,0,0,.434.469h.708a.343.343,0,0,0,.29-.175.625.625,0,0,0,.084-.41,8.029,8.029,0,0,0-2.627-4.957,4.547,4.547,0,0,0-4.495-.876A6,6,0,0,0,3,5.748l-.133.178L1.51,4.118A.263.263,0,0,0,1.3,4c-.159,0-.29.165-.3.377V9.752c0,.137.083.247.185.248Z" transform="translate(0 -1.174)" fill="#8438d0"/>
                  </g>
                  <g id="Group_68133" data-name="Group 68133" transform="translate(305 400)">
                    <rect id="Canvas-7" data-name="Canvas" width="14" height="14" fill="#8438d0" opacity="0"/>
                    <rect id="Rectangle_148150" data-name="Rectangle 148150" width="2" height="3" transform="translate(7.5 2)" fill="#8438d0"/>
                    <path id="Path_36733" data-name="Path 36733" d="M11.9,3.534S10.462,2.1,10.415,2.064a.346.346,0,0,0-.2-.064H9.857V4.857H5.571V2H2.357A.357.357,0,0,0,2,2.357v9.286A.357.357,0,0,0,2.357,12h9.286A.357.357,0,0,0,12,11.643V3.786a.357.357,0,0,0-.1-.252ZM9.857,11.286H4.143v-5H9.857Z" transform="translate(0 0)" fill="#8438d0"/>
                  </g>
                  <text id="Revert" transform="translate(270.273 410)" fill="#8438d0" font-size="8" font-family="Helvetica"><tspan x="0" y="0">Revert</tspan></text>
                  <text id="Save_copy" data-name="Save copy" transform="translate(322.273 410)" fill="#8438d0" font-size="8" font-family="Helvetica"><tspan x="0" y="0">Save copy</tspan></text>
                </g>
                <g id="Group_68125" data-name="Group 68125" transform="translate(0 90)" opacity="0.602">
                  <g id="Group_68124" data-name="Group 68124">
                    <rect id="Rectangle_148045" data-name="Rectangle 148045" width="262.838" height="71" rx="3" transform="translate(108 400)" fill="#f7f7f7"/>
                  </g>
                  <text id="Lorem_ipsum_dolor_sit_amet_meliore_minimum_accusata_te_qui_eum_tale_singulis_cu_ne_sed_tamquam_graecis._Te_verterem_sensibus_duo_posse_aliquid." data-name="Lorem ipsum dolor sit amet, meliore minimum accusata te qui, eum tale singulis cu, ne sed tamquam graecis. Te verterem sensibus duo, posse aliquid." transform="translate(118 410)" fill="#747474" stroke="rgba(0,0,0,0)" stroke-width="1" font-size="9" font-family="Helvetica"><tspan x="0" y="7">Lorem ipsum dolor sit amet, meliore minimum accusata te </tspan><tspan x="0" y="22">qui, eum tale singulis cu, ne sed tamquam graecis. Te </tspan><tspan x="0" y="37">verterem sensibus duo, posse aliquid.</tspan></text>
                </g>
              </g>
              <text id="Clear_List" data-name="Clear List" transform="translate(62 184)" fill="#8438d0" font-size="9" font-family="Helvetica"><tspan x="0" y="7">Clear List</tspan></text>
              <g id="Group_68150" data-name="Group 68150" transform="translate(56 10)" opacity="0.6">
                <g id="Group_68140" data-name="Group 68140" transform="translate(218 169)">
                  <g id="Ellipse_20261" data-name="Ellipse 20261" transform="translate(0)" fill="none" stroke="#747474" stroke-width="1">
                    <circle cx="9.536" cy="9.536" r="9.536" stroke="none"/>
                    <circle cx="9.536" cy="9.536" r="9.036" fill="none"/>
                  </g>
                  <path id="Path_36741" data-name="Path 36741" d="M10.615,6.311H7.635V3.331A.331.331,0,0,0,7.3,3H6.642a.331.331,0,0,0-.331.331v2.98H3.331A.331.331,0,0,0,3,6.642V7.3a.331.331,0,0,0,.331.331h2.98v2.98a.331.331,0,0,0,.331.331H7.3a.331.331,0,0,0,.331-.331V7.635h2.98a.331.331,0,0,0,.331-.331V6.642A.331.331,0,0,0,10.615,6.311Z" transform="translate(2.563 2.563)" fill="#747474"/>
                </g>
                <text id="Text" transform="translate(241 182)" fill="#747474" font-size="10" font-family="Helvetica"><tspan x="0" y="0">Add Text Object</tspan></text>
              </g>
            </g>
          </g>
        </g>
        <g id="Group_72742" data-name="Group 72742" transform="translate(-1 -29)">
          <path id="Rectangle_148185" data-name="Rectangle 148185" d="M0,0H348a2,2,0,0,1,2,2V33a2,2,0,0,1-2,2H0a0,0,0,0,1,0,0V0A0,0,0,0,1,0,0Z" transform="translate(49 213)" fill="#9c5ade"/>
          <text id="EDITOR_LIST" data-name="EDITOR LIST" transform="translate(63 234)" fill="#fff" font-size="11" font-family="Helvetica"><tspan x="0" y="0">EDITOR LIST</tspan></text>
          <path id="Path_61155" data-name="Path 61155" d="M0,9.686,4.843,4.843,0,0" transform="translate(371.767 228.29) rotate(90)" fill="none" stroke="#fff" stroke-linecap="round" stroke-width="1"/>
        </g>
        <g id="Group_72748" data-name="Group 72748" transform="translate(1 -762.5)">
          <line id="Line_64" data-name="Line 64" x2="349" transform="translate(48.5 946)" fill="none" stroke="#e0e0e0" stroke-width="1"/>
          <line id="Line_63" data-name="Line 63" x2="349" transform="translate(48.5 899.5)" fill="none" stroke="#e0e0e0" stroke-width="1"/>
          <g id="Group_72741" data-name="Group 72741" transform="translate(0 637)">
            <path id="Rectangle_148184" data-name="Rectangle 148184" d="M0,0H347a2,2,0,0,1,2,2V33a2,2,0,0,1-2,2H0a0,0,0,0,1,0,0V0A0,0,0,0,1,0,0Z" transform="translate(48 268)" fill="#f5f5f5"/>
            <text id="progress" transform="translate(61 289)" fill="#707070" font-size="11" font-family="Helvetica"><tspan x="0" y="0">PROGRESS</tspan></text>
            <path id="Path_36755" data-name="Path 36755" d="M0,9.686,4.843,4.843,0,0" transform="translate(364.502 280.868)" fill="none" stroke="#707070" stroke-linecap="round" stroke-width="1"/>
          </g>
        </g>
        <circle id="Ellipse_20262" data-name="Ellipse 20262" cx="3.5" cy="3.5" r="3.5" transform="translate(121 148)" fill="#edc27f"/>
        <g id="Scroll" transform="translate(394.49 289)">
          <path id="Rectangle_851_1_" d="M1.621,0H361.55a1.846,1.846,0,0,1,1.621,2h0a1.846,1.846,0,0,1-1.621,2H1.621A1.846,1.846,0,0,1,0,2H0A1.846,1.846,0,0,1,1.621,0Z" transform="translate(4) rotate(90)" fill="#eaeaea"/>
          <path id="Rectangle_857_1_" d="M2,0H86a2.006,2.006,0,0,1,2,2h0a2.006,2.006,0,0,1-2,2H2A2.006,2.006,0,0,1,0,2H0A2.006,2.006,0,0,1,2,0Z" transform="translate(4 33) rotate(90)" fill="#cacaca"/>
        </g>
        <text id="Text_Editor-2" data-name="Text Editor" transform="translate(108.002 418)" fill="#8438d0" font-size="8" font-family="Helvetica"><tspan x="0" y="0">Text Editor</tspan></text>
        <text id="Original_copy" data-name="Original copy" transform="translate(108.002 555)" fill="#8e8e8e" font-size="9" font-family="Helvetica"><tspan x="0" y="0">Original copy</tspan></text>
        <text id="_150" data-name=" / 150" transform="translate(341 410)" fill="#8438d0" font-size="8" font-family="Helvetica"><tspan x="10.492" y="6" xml:space="preserve"> / 150</tspan></text>
      </g>
    </g>
  </g>
</svg>
