<svg id="Version_Control_Icon" data-name="Version Control Icon" xmlns="http://www.w3.org/2000/svg" width="40" height="40" viewBox="0 0 40 40">
  <circle id="Ellipse_2" data-name="Ellipse 2" cx="20" cy="20" r="20" fill="#632e96"/>
  <g id="shuffle" transform="translate(8 8)">
    <rect id="Bounding_box" data-name="Bounding box" width="24" height="24" fill="rgba(255,255,255,0)"/>
    <path id="Icon_color" data-name="Icon color" d="M14.5,17A.5.5,0,0,1,14,16.5v-2.06a5.1,5.1,0,0,1-2.881-1.4L3.461,5.383A2.986,2.986,0,0,0,1.34,4.5H.5A.5.5,0,0,1,0,4V3a.5.5,0,0,1,.5-.5h.85a4.969,4.969,0,0,1,3.531,1.46L8,7.093l3.121-3.13A5.09,5.09,0,0,1,14,2.563V.5a.5.5,0,0,1,.851-.36l3,3a.508.508,0,0,1,0,.71l-3,3A.5.5,0,0,1,14,6.5V4.583a3,3,0,0,0-1.461.8L9.413,8.5l3.131,3.119a2.99,2.99,0,0,0,1.461.8V10.5a.5.5,0,0,1,.851-.36l3,3a.508.508,0,0,1,0,.71l-3,3A.5.5,0,0,1,14.5,17ZM1.35,14.5H.5A.5.5,0,0,1,0,14V13a.5.5,0,0,1,.5-.5h.84a2.982,2.982,0,0,0,2.121-.88l1.9-1.89,1.41,1.41-1.891,1.9A4.969,4.969,0,0,1,1.35,14.5Z" transform="translate(2.771 3.497)" fill="#fff"/>
  </g>
</svg>
